<svg width="84" height="100" viewBox="0 0 84 100" fill="none" xmlns="http://www.w3.org/2000/svg">
<path d="M70.2377 52.8465C70.1896 44.6497 73.9034 38.4721 81.4031 33.917C77.2085 27.9076 70.8626 24.6024 62.4976 23.9654C54.5772 23.3404 45.9117 28.5806 42.7387 28.5806C39.3855 28.5806 31.7175 24.1818 25.6841 24.1818C13.2327 24.3741 0 34.1092 0 53.9162C0 59.7693 1.06967 65.8148 3.20901 72.0405C6.06947 80.2373 16.3816 100.321 27.1384 99.9961C32.7631 99.8639 36.7414 96.0059 44.0608 96.0059C51.1639 96.0059 54.8416 99.9961 61.1154 99.9961C71.9684 99.8399 81.2949 81.5834 84.0112 73.3625C69.4564 66.4998 70.2377 53.2672 70.2377 52.8465V52.8465ZM57.6059 16.1893C63.6994 8.95398 63.1466 2.3677 62.9663 0C57.5819 0.312488 51.3562 3.66572 47.8106 7.78816C43.9045 12.2111 41.609 17.6796 42.1017 23.8452C47.9188 24.2899 53.2311 21.2972 57.6059 16.1893V16.1893Z" fill="#00C5FF"/>
</svg>
