<svg width="83" height="101" viewBox="0 0 83 101" fill="none" xmlns="http://www.w3.org/2000/svg">
<path d="M43.2935 0C42.6435 0 41.9779 0.034375 41.2904 0.084375C23.681 1.48125 28.3529 20.1188 28.0904 26.3344C27.7654 30.875 26.8404 34.4719 23.7154 38.9188C20.0185 43.2969 14.8435 50.3781 12.3873 57.7469C11.2342 61.2125 10.6779 64.7812 11.1998 68.1344C11.0033 68.28 10.842 68.468 10.7279 68.6844C9.65292 69.8094 8.85291 71.1938 7.97479 72.1844C7.14666 73.0125 5.95917 73.2938 4.65292 73.8469C3.35292 74.4125 1.90291 74.9687 1.05604 76.6937C0.681039 77.4781 0.484165 78.3219 0.502915 79.2031C0.502915 80.0156 0.61854 80.8625 0.73104 81.4313C0.977915 83.0906 1.21854 84.4594 0.89354 85.4688C-0.147085 88.2969 -0.259585 90.2344 0.45604 91.6531C1.18416 93.0531 2.68416 93.6062 4.35916 94.1625C7.74666 94.9906 12.3185 94.7281 15.9342 96.65C19.7873 98.6031 23.7123 99.45 26.8373 98.6219C27.9152 98.3802 28.9257 97.9014 29.7955 97.2203C30.6652 96.5392 31.3723 95.6729 31.8654 94.6844C34.306 94.6687 36.9904 93.5594 41.2748 93.2844C44.1873 93.0375 47.8342 94.4062 52.0154 94.1125C52.1279 94.6844 52.2748 94.9406 52.5029 95.5125V95.5281C54.1279 98.7656 57.1404 100.231 60.3654 99.9875C63.5685 99.7281 66.9873 97.7594 69.7529 94.5375C72.3904 91.3625 76.7685 90.025 79.6654 88.2875C81.1154 87.4531 82.2873 86.3344 82.3685 84.7219C82.4654 83.0625 81.5404 81.3375 79.406 78.9937V78.5844L79.3904 78.5688C78.6748 77.7406 78.3498 76.3406 77.9748 74.7156C77.6154 73.0375 77.2248 71.4438 75.9248 70.3531C75.6623 70.125 75.4029 70.075 75.1279 69.8C74.897 69.6373 74.6255 69.5421 74.3435 69.525C76.1342 64.2 75.4342 58.9125 73.6092 54.1406C71.3967 48.2656 67.506 43.1406 64.5592 39.625C61.2373 35.4406 57.9842 31.4719 58.0498 25.5969C58.1623 16.625 59.0404 0.04375 43.2873 0.009375L43.2935 0ZM45.4904 14.1906H45.556C46.4342 14.1906 47.1967 14.4531 47.981 15.0063C48.7779 15.5719 49.3654 16.3906 49.8029 17.2344C50.2435 18.3094 50.4748 19.1375 50.5029 20.2438C50.5029 20.1656 50.5185 20.0813 50.5185 20.0031V20.4406C50.5185 20.4062 50.5029 20.3781 50.5029 20.3438L50.4873 20.2438C50.4873 21.2563 50.2779 22.2656 49.8717 23.1906C49.6786 23.7172 49.3725 24.1951 48.9748 24.5906C48.8623 24.5281 48.7467 24.4625 48.6154 24.4125C48.1779 24.2156 47.7873 24.1531 47.4279 23.8625C47.1322 23.744 46.8269 23.651 46.5154 23.5844C46.7123 23.3437 47.1185 23.0313 47.281 22.7563C47.4935 22.2344 47.606 21.6656 47.6404 21.0812V20.9969C47.6493 20.4327 47.5605 19.8713 47.3779 19.3375C47.1998 18.7844 46.9748 18.5031 46.631 17.9531C46.2717 17.675 45.931 17.4 45.506 17.4H45.4435C45.0529 17.4 44.7092 17.5125 44.3529 17.9531C43.9619 18.3386 43.6712 18.8139 43.506 19.3375C43.279 19.8625 43.1519 20.4253 43.131 20.9969V21.0812C43.131 21.4531 43.1654 21.8281 43.2092 22.2031C42.3967 21.9281 41.3873 21.6313 40.6717 21.3563C40.6327 21.0818 40.6108 20.8053 40.606 20.5281V20.4437C40.5744 19.3432 40.7868 18.2494 41.2279 17.2406C41.5685 16.3281 42.1873 15.5438 43.0185 15.025C43.731 14.4906 44.5935 14.1969 45.4904 14.1969V14.1906ZM33.1529 14.4375H33.2998C33.8873 14.4375 34.4248 14.6344 34.9623 14.9906C35.5779 15.5281 36.0717 16.1937 36.3967 16.925C36.7717 17.7594 36.981 18.6031 37.0467 19.7094V19.725C37.0623 20.2781 37.0623 20.575 37.031 20.8344V21.175L36.6904 21.2719C36.056 21.5 35.5529 21.825 35.0435 22.1062C35.0935 21.7312 35.0935 21.3562 35.0592 20.9969V20.9312C35.0123 20.3812 34.8967 20.1031 34.7185 19.5469C34.5851 19.1191 34.3441 18.7328 34.0185 18.425C33.8139 18.2425 33.5455 18.1482 33.2717 18.1625H33.1717C32.881 18.1781 32.6342 18.325 32.4092 18.7156C32.1337 19.0325 31.9586 19.4241 31.906 19.8406C31.7904 20.2781 31.756 20.75 31.806 21.225V21.2719C31.856 21.8438 31.9529 22.1219 32.1467 22.6719C32.2724 23.0958 32.5086 23.4787 32.831 23.7813C32.881 23.8313 32.9154 23.8656 32.9779 23.8781C32.6873 24.125 32.4904 24.175 32.2498 24.45C32.0842 24.5656 31.9092 24.7125 31.6967 24.7469C31.2633 24.2256 30.8813 23.6636 30.556 23.0687C30.1573 22.1928 29.9364 21.2464 29.906 20.2844C29.8429 19.3442 29.9531 18.4004 30.231 17.5C30.4779 16.6875 30.8685 15.9219 31.4185 15.2719C31.956 14.7188 32.4935 14.4438 33.1592 14.4438L33.1529 14.4375ZM38.8654 21.55C40.2498 21.55 41.9123 21.8094 43.9279 23.2094C45.1498 24.0438 46.1123 24.3344 48.3248 25.1469C49.3998 25.7187 50.0154 26.2719 50.3248 26.825V26.2719C50.4732 26.5737 50.5558 26.9037 50.5671 27.2398C50.5784 27.576 50.5182 27.9107 50.3904 28.2219C49.8685 29.525 48.2404 30.9094 45.9498 31.7375V31.7531C44.8404 32.3063 43.8654 33.1375 42.7248 33.6906C41.5717 34.2438 40.2654 34.9125 38.5092 34.8C37.8732 34.8279 37.2377 34.7335 36.6373 34.5219C36.1744 34.2761 35.7286 33.9995 35.3029 33.6937C34.4904 33.1406 33.7904 32.3094 32.7498 31.7562V31.7406H32.7342C31.056 30.7156 30.1623 29.6062 29.8685 28.7781C29.5935 27.6562 29.8529 26.8281 30.6842 26.275C31.6092 25.7219 32.2592 25.15 32.6842 24.875C33.1217 24.5656 33.2873 24.45 33.4185 24.3375H33.4342V24.3219C34.1342 23.475 35.2373 22.3688 36.9342 21.8125C37.4998 21.6656 38.156 21.5531 38.8685 21.5531L38.8654 21.55ZM50.5185 30.4656C52.0185 36.375 55.5185 44.9531 57.7654 49.1031C58.9529 51.3313 61.3279 56.0188 62.3529 61.7031C63.0029 61.6875 63.7185 61.7813 64.4873 61.9781C67.1873 55.0125 62.2248 47.525 59.9623 45.4406C59.0342 44.6125 58.9873 44.0562 59.4404 44.0562C61.8998 46.2687 65.1185 50.6031 66.2904 55.5313C66.8279 57.7594 66.9623 60.1406 66.3904 62.4969C66.6654 62.6094 66.9435 62.7562 67.2373 62.7719C71.5342 65.0062 73.1279 66.6812 72.3623 69.1844V69.0063C72.1217 68.9938 71.8592 69.0063 71.6154 69.0063H71.5498C72.1873 67.0563 70.7873 65.5563 67.1092 63.8969C63.2998 62.2375 60.256 62.4969 59.7342 65.8344C59.6973 66.0229 59.6764 66.2142 59.6717 66.4062C59.3748 66.5031 59.0842 66.6156 58.7935 66.6656C57.0029 67.7906 56.0404 69.4656 55.4904 71.6156C54.9529 73.8437 54.7904 76.4313 54.6435 79.4125C54.5435 80.8125 53.9279 82.9094 53.306 85.0406C47.056 89.5156 38.381 91.4531 31.0279 86.4406C30.5529 85.6281 29.9998 84.8781 29.3498 84.2125C29.0377 83.6953 28.6489 83.2285 28.1967 82.8281C28.9592 82.8281 29.6123 82.7 30.1342 82.55C30.7302 82.2629 31.1988 81.7653 31.4498 81.1531C31.8904 80.0437 31.4498 78.2531 29.9998 76.3C28.5717 74.3656 26.1279 72.1656 22.5623 69.9719C19.9279 68.3125 18.4467 66.3438 17.7623 64.1594C17.0779 61.9313 17.1748 59.6344 17.6967 57.3094C18.7217 52.85 21.3435 48.5063 23.0217 45.7844C23.4592 45.525 23.1685 46.3563 21.3123 49.8563C19.6654 52.9813 16.5592 60.2563 20.8029 65.9031C20.966 61.779 21.8822 57.7195 23.506 53.925C25.8467 48.6031 30.7654 39.3281 31.156 31.9719C31.3529 32.1344 32.0529 32.5437 32.3592 32.8187C33.256 33.3719 33.9373 34.2031 34.8185 34.7562C35.6967 35.5844 36.8029 36.1562 38.4654 36.1562C38.6279 36.1719 38.7748 36.1719 38.9185 36.1719C40.6279 36.1719 41.9654 35.6188 43.0685 35.0625C44.2717 34.4906 45.2529 33.6625 46.1592 33.3875H46.1748C48.1123 32.8344 49.6592 31.7094 50.5217 30.4719L50.5185 30.4656ZM59.6342 67.7906C59.7967 70.2938 61.0685 72.9813 63.3123 73.5313C65.7529 74.0844 69.2842 72.1469 70.7654 70.3438L71.6435 70.3094C72.9592 70.275 74.0529 70.3438 75.1717 71.4188L75.1873 71.4344C76.0498 72.2625 76.4592 73.6469 76.8154 75.0812C77.1748 76.7562 77.4498 78.3344 78.5248 79.5219C80.5404 81.7188 81.2092 83.2969 81.1779 84.275C81.1123 85.3625 80.3935 85.9156 79.0935 86.7469C76.4717 88.425 71.8185 89.7094 68.856 93.2938C66.281 96.3688 63.1435 98.0437 60.3717 98.2562C57.606 98.4844 55.2123 97.4281 53.8123 94.5156L53.7967 94.5C52.9185 92.8375 53.2935 90.2344 54.0248 87.4656C54.7592 84.6813 55.8154 81.8531 55.9623 79.5563C56.1092 76.5781 56.2717 73.9906 56.7592 71.9844C57.2623 70.0469 58.0467 68.6625 59.4467 67.9L59.6248 67.8L59.6342 67.7906ZM14.5654 68H14.6154C14.8435 68 15.056 68.0156 15.2654 68.0656C16.8279 68.2938 18.2123 69.45 19.531 71.1906L23.3217 78.125L23.3373 78.1406C24.3467 80.3531 26.4779 82.5656 28.2842 84.9625C30.0935 87.45 31.4935 89.6781 31.331 91.5031V91.5375C31.0842 94.6281 29.3279 96.3031 26.6435 96.925C23.956 97.4781 20.3092 96.925 16.6654 94.9875C12.631 92.7594 7.82792 93.0344 4.75292 92.4781C3.22479 92.2031 2.21541 91.6312 1.74041 90.8031C1.28729 89.975 1.26854 88.2938 2.26229 85.675V85.6625C2.74979 84.2625 2.39666 82.5219 2.14979 80.9906C1.92166 79.3281 1.80916 78.0406 2.32791 77.0813C2.99354 75.6813 3.98729 75.4219 5.20604 74.8531C6.42792 74.3 7.87792 74.025 9.01542 72.9H9.03104V72.8844C10.0904 71.7812 10.8904 70.3969 11.8154 69.4C12.5998 68.5531 13.3935 68 14.5654 68V68ZM44.4029 30.1906C42.5935 31.0188 40.4623 32.4187 38.1998 32.4187C35.9373 32.4187 34.1623 31.3156 32.8779 30.4812C32.2279 29.9156 31.706 29.3594 31.3154 29.0812C30.631 28.5312 30.7123 27.6844 31.006 27.6844C31.4592 27.7469 31.5435 28.25 31.8342 28.5313C32.2435 28.8063 32.731 29.3594 33.331 29.9156C34.5529 30.7437 36.181 31.8656 38.1967 31.8656C40.2185 31.8656 42.5935 30.7437 44.0248 29.9156C44.8373 29.3625 45.8779 28.5313 46.7248 27.9781C47.3748 27.4063 47.3467 26.8531 47.8779 26.8531C48.4154 26.9188 48.0279 27.4063 47.2779 28.2375C46.5123 28.8094 45.3404 29.6375 44.3998 30.1906H44.4029ZM39.8935 23.5844V23.5062C39.8779 23.4219 39.9404 23.3281 40.0217 23.2937C40.3123 23.1156 40.7685 23.1781 41.0967 23.3094C41.356 23.3094 41.7623 23.5844 41.731 23.875C41.6967 24.0719 41.3717 24.1531 41.1592 24.1531C40.9342 24.1531 40.7685 23.975 40.5748 23.8625C40.3623 23.7969 39.9529 23.8281 39.8904 23.5844H39.8935ZM37.5967 23.5844C37.5123 23.8312 37.1217 23.7969 36.9123 23.8625C36.7154 23.975 36.5529 24.1531 36.3248 24.1531C36.1123 24.1531 35.7717 24.0688 35.7529 23.8625C35.7248 23.5844 36.1123 23.3094 36.3748 23.3094C36.7154 23.175 37.1373 23.1125 37.4623 23.2937C37.5279 23.3281 37.6123 23.4219 37.5779 23.5062V23.5844H37.5967Z" fill="#00C5FF"/>
</svg>
