<svg width="18" height="14" viewBox="0 0 18 14" fill="none" xmlns="http://www.w3.org/2000/svg">
<path d="M15.2766 1.15642C15.2719 1.14726 15.2641 1.14009 15.2546 1.13618C14.1523 0.630476 12.9892 0.269869 11.7942 0.0633845C11.7834 0.0613662 11.7722 0.0628222 11.7622 0.0675456C11.7522 0.072269 11.744 0.0800192 11.7386 0.0896941C11.5802 0.37716 11.4365 0.672434 11.3078 0.974391C10.0197 0.778856 8.70948 0.778856 7.42137 0.974391C7.29189 0.671667 7.14581 0.376319 6.98379 0.0896941C6.97823 0.0802295 6.96995 0.0726578 6.96003 0.067965C6.95011 0.0632723 6.93901 0.0616762 6.92816 0.0633845C5.73307 0.269436 4.56985 0.63007 3.46778 1.13621C3.45835 1.14021 3.45039 1.14704 3.445 1.15575C1.24109 4.447 0.637361 7.65732 0.933533 10.8279C0.934366 10.8357 0.936753 10.8432 0.940553 10.85C0.944352 10.8568 0.949487 10.8628 0.95565 10.8676C2.23896 11.8178 3.67437 12.5431 5.20061 13.0126C5.21135 13.0158 5.22283 13.0157 5.23349 13.0122C5.24416 13.0087 5.25349 13.002 5.26025 12.993C5.58805 12.547 5.87851 12.0747 6.12867 11.5809C6.13211 11.5741 6.13407 11.5667 6.13443 11.5591C6.13479 11.5515 6.13353 11.544 6.13075 11.5369C6.12797 11.5298 6.12372 11.5234 6.11828 11.5181C6.11284 11.5128 6.10634 11.5087 6.09921 11.5061C5.64118 11.3308 5.19775 11.1196 4.77309 10.8743C4.76537 10.8698 4.7589 10.8634 4.75422 10.8558C4.74955 10.8481 4.74683 10.8395 4.7463 10.8305C4.74578 10.8216 4.74745 10.8127 4.75119 10.8045C4.75493 10.7964 4.76061 10.7893 4.76774 10.7839C4.8571 10.7172 4.94491 10.6484 5.0311 10.5776C5.03866 10.5713 5.0478 10.5674 5.05751 10.566C5.06721 10.5647 5.07709 10.5662 5.08603 10.5702C7.86817 11.8399 10.8802 11.8399 13.6294 10.5702C13.6384 10.5659 13.6484 10.5643 13.6582 10.5655C13.6681 10.5667 13.6774 10.5706 13.6851 10.5769C13.7713 10.6481 13.8594 10.7171 13.9491 10.7839C13.9562 10.7893 13.962 10.7963 13.9658 10.8044C13.9696 10.8125 13.9713 10.8214 13.9708 10.8304C13.9704 10.8393 13.9677 10.848 13.9631 10.8556C13.9585 10.8633 13.9521 10.8697 13.9444 10.8743C13.5207 11.1217 13.0769 11.3328 12.6176 11.5054C12.6105 11.5082 12.604 11.5123 12.5986 11.5177C12.5932 11.5231 12.589 11.5296 12.5863 11.5367C12.5836 11.5438 12.5824 11.5515 12.5828 11.5591C12.5832 11.5667 12.5852 11.5741 12.5887 11.5809C12.8431 12.072 13.1331 12.5437 13.4565 12.9922C13.463 13.0015 13.4723 13.0084 13.483 13.012C13.4937 13.0156 13.5053 13.0158 13.5161 13.0125C15.0451 12.5446 16.483 11.8193 17.7679 10.8676C17.7742 10.8631 17.7794 10.8572 17.7832 10.8505C17.787 10.8437 17.7894 10.8363 17.79 10.8286C18.1446 7.16305 17.1964 3.97904 15.2766 1.15642V1.15642ZM6.54416 8.89734C5.70653 8.89734 5.01635 8.12867 5.01635 7.18465C5.01635 6.24062 5.69314 5.47189 6.54416 5.47189C7.40182 5.47189 8.08533 6.2473 8.07194 7.18459C8.07194 8.12867 7.39512 8.89734 6.54416 8.89734V8.89734ZM12.1929 8.89734C11.3553 8.89734 10.6651 8.12867 10.6651 7.18465C10.6651 6.24062 11.3419 5.47189 12.1929 5.47189C13.0506 5.47189 13.7341 6.2473 13.7207 7.18459C13.7207 8.12867 13.0506 8.89734 12.1929 8.89734Z" fill="#D9D9D9"/>
</svg>
