<svg width="17" height="17" viewBox="0 0 17 17" fill="none" xmlns="http://www.w3.org/2000/svg">
<path d="M15.4062 0H1.59375C0.717188 0 0 0.717188 0 1.59375V15.4062C0 16.2828 0.717188 17 1.59375 17H15.4062C16.2828 17 17 16.2828 17 15.4062V1.59375C17 0.717188 16.2828 0 15.4062 0ZM13.7689 11.9L12.2145 11.9234C12.2145 11.9234 11.8787 11.9903 11.441 11.6875C10.8598 11.2891 10.3116 10.2499 9.88338 10.3859C9.452 10.5219 9.46475 11.4548 9.46475 11.4548C9.46475 11.4548 9.46794 11.6546 9.36806 11.7597C9.26181 11.8756 9.04931 11.8989 9.04931 11.8989H8.3555C8.3555 11.8989 6.82125 11.9924 5.46975 10.5836C3.995 9.04931 2.6945 6.00525 2.6945 6.00525C2.6945 6.00525 2.618 5.8055 2.70088 5.70988C2.79331 5.60044 3.043 5.59406 3.043 5.59406L4.70687 5.5845C4.70687 5.5845 4.86306 5.61106 4.97569 5.69394C5.06919 5.76088 5.11806 5.88944 5.11806 5.88944C5.11806 5.88944 5.38688 6.5705 5.74281 7.18463C6.43663 8.38313 6.76175 8.64556 6.99762 8.51912C7.33975 8.33319 7.23669 6.82231 7.23669 6.82231C7.23669 6.82231 7.24306 6.27406 7.06456 6.03181C6.92538 5.84269 6.66294 5.78638 6.55031 5.77256C6.45681 5.75875 6.60981 5.54306 6.80956 5.44425C7.10812 5.29763 7.63619 5.28806 8.26094 5.29444C8.74544 5.29762 8.88887 5.33056 9.078 5.37413C9.65281 5.51331 9.45625 6.04775 9.45625 7.33019C9.45625 7.74244 9.38294 8.31938 9.67831 8.5085C9.80475 8.59138 10.1161 8.52125 10.897 7.19738C11.2657 6.56944 11.5441 5.83312 11.5441 5.83312C11.5441 5.83312 11.6036 5.70031 11.6971 5.644C11.7937 5.58769 11.9234 5.60469 11.9234 5.60469L13.6733 5.59512C13.6733 5.59512 14.1982 5.53244 14.2843 5.7715C14.3735 6.02013 14.0888 6.60131 13.3748 7.55438C12.2028 9.11838 12.07 8.97175 13.0464 9.87487C13.9761 10.7387 14.1684 11.1594 14.2024 11.2126C14.5807 11.8501 13.7711 11.9 13.7711 11.9H13.7689Z" fill="#D9D9D9"/>
</svg>
