<svg width="18" height="13" viewBox="0 0 18 13" fill="none" xmlns="http://www.w3.org/2000/svg">
<path d="M16.8929 2.39396C16.7942 2.04107 16.606 1.71965 16.3466 1.46082C16.0872 1.20198 15.7654 1.01451 15.4123 0.916556C14.0868 0.562212 8.75841 0.562212 8.75841 0.562212C8.75841 0.562212 3.44007 0.553712 2.10078 0.916556C1.74825 1.01494 1.42705 1.20261 1.16824 1.46142C0.909434 1.72023 0.721767 2.04142 0.623379 2.39396C0.371673 3.75089 0.247704 5.12843 0.253098 6.50849C0.250642 7.88192 0.374592 9.25266 0.623379 10.6034C0.722085 10.9561 0.909808 11.2775 1.16853 11.5368C1.42724 11.7961 1.74827 11.9845 2.10078 12.084C3.42625 12.4383 8.75841 12.4383 8.75841 12.4383C8.75841 12.4383 14.0736 12.4383 15.4123 12.084C15.7654 11.9849 16.087 11.7967 16.3463 11.5374C16.6056 11.2781 16.7939 10.9564 16.8929 10.6034C17.1367 9.25346 17.2557 7.88071 17.2472 6.50849C17.2557 5.12724 17.1394 3.75237 16.8929 2.39396V2.39396ZM7.05628 9.05159V3.95424L11.4917 6.50849L7.05628 9.05159Z" fill="#D9D9D9"/>
</svg>
